<?xml version="1.0" encoding="utf-8"?>
<!-- Svg Vector Icons : http://www.onlinewebfonts.com/icon -->
<!DOCTYPE svg PUBLIC "-//W3C//DTD SVG 1.1//EN" "http://www.w3.org/Graphics/SVG/1.1/DTD/svg11.dtd">
<svg version="1.1" xmlns="http://www.w3.org/2000/svg" xmlns:xlink="http://www.w3.org/1999/xlink" x="0px" y="0px" viewBox="0 0 1000 1000" enable-background="new 0 0 1000 1000" xml:space="preserve">
<metadata> Svg Vector Icons : http://www.onlinewebfonts.com/icon </metadata>
<g><path d="M748.7,480.3h-229V146.2c0-10.9-8.8-19.7-19.7-19.7c-10.9,0-19.7,8.8-19.7,19.7V500c0,10.9,8.8,19.7,19.7,19.7h248.7c10.9,0,19.7-8.8,19.7-19.7C768.4,489.1,759.6,480.3,748.7,480.3z"/><path d="M500,10C229.8,10,10,229.8,10,500c0,270.2,219.8,490,490,490c270.2,0,490-219.8,490-490C990,229.8,770.2,10,500,10z M500,950.6C251.6,950.6,49.4,748.4,49.4,500C49.4,251.5,251.6,49.4,500,49.4c248.4,0,450.6,202.1,450.6,450.6S748.5,950.6,500,950.6z"/></g>
</svg>