<?xml version="1.0" encoding="iso-8859-1"?>
<!-- Generator: Adobe Illustrator 19.0.0, SVG Export Plug-In . SVG Version: 6.00 Build 0)  -->
<svg version="1.1" id="Layer_1" xmlns="http://www.w3.org/2000/svg" xmlns:xlink="http://www.w3.org/1999/xlink" x="0px" y="0px"
	 viewBox="0 0 472.615 472.615" style="enable-background:new 0 0 472.615 472.615;" xml:space="preserve">
<g>
	<g>
		<path d="M436.386,226.462C431.362,123.736,348.88,41.254,246.154,36.231V0h-19.692v36.231
			C123.727,41.254,41.245,123.736,36.22,226.462H0v19.692h36.22c5.025,102.726,87.507,185.207,190.242,190.231v36.231h19.692
			v-36.231c102.726-5.023,185.208-87.505,190.233-190.231h36.229v-19.692H436.386z M416.694,246.154
			c-4.983,91.87-78.669,165.558-170.54,170.538v-87.702h-19.692v87.702c-91.88-4.98-165.566-78.666-170.549-170.538h87.704v-19.692
			H55.912c4.983-91.872,78.669-165.558,170.549-170.538v87.692h19.692V55.923c91.872,4.98,165.557,78.668,170.54,170.538h-87.704
			v19.692H416.694z"/>
	</g>
</g>
<g>
</g>
<g>
</g>
<g>
</g>
<g>
</g>
<g>
</g>
<g>
</g>
<g>
</g>
<g>
</g>
<g>
</g>
<g>
</g>
<g>
</g>
<g>
</g>
<g>
</g>
<g>
</g>
<g>
</g>
</svg>
